<?xml version="1.0" encoding="UTF-8" standalone="no"?>
<!-- Created with Inkscape (http://www.inkscape.org/) -->
<svg
   xmlns:svg="http://www.w3.org/2000/svg"
   xmlns="http://www.w3.org/2000/svg"
   version="1.0"
   width="619.08661"
   height="466.47638"
   id="svg1979">
  <defs
     id="defs1981" />
  <g
     transform="translate(-108.6612,-45.17215)"
     id="layer1">
    <g
       transform="translate(3.548419,3.535024)"
       style="fill:red"
       id="g12064">
      <path
         d="M 390.80259,45.172151 C 287.81864,45.172151 200.68437,112.98702 171.50822,206.35075 L 190.11791,206.35075 C 218.66321,122.84383 297.67544,62.835553 390.80259,62.835553 C 483.92974,62.835553 562.94197,122.84383 591.48727,206.35075 L 610.09697,206.35075 C 580.99968,112.98702 493.78655,45.172151 390.80259,45.172151"
         style="fill:red;fill-rule:nonzero;stroke:none"
         id="path12001" />
      <path
         d="M 591.48727,343.39986 C 562.94197,426.90676 483.92974,486.91503 390.80259,486.91503 C 297.67544,486.91503 218.66321,426.90676 190.11791,343.39986 L 171.50822,343.39986 C 200.68437,436.84243 287.81864,504.57848 390.80259,504.57848 C 493.78655,504.57848 580.99968,436.84243 610.09697,343.39986 L 591.48727,343.39986"
         style="fill:red;fill-rule:nonzero;stroke:none"
         id="path12003" />
      <path
         d="M 415.32637,185.29659 L 449.54922,185.29659 L 449.54922,320.2955 L 415.32637,320.2955 L 415.32637,185.29659 z "
         style="fill:red;fill-rule:nonzero;stroke:none"
         id="path12005" />
      <path
         d="M 348.53657,242.54496 C 361.07445,241.83527 369.03876,255.39825 369.03876,273.29822 C 369.03876,296.40258 361.07445,306.4171 348.06344,306.4171 C 335.76215,306.4171 327.16699,296.40258 327.16699,273.29822 C 327.16699,259.57753 332.05603,242.54496 348.53657,242.54496 z M 294.20584,275.97927 C 294.20584,309.0193 318.09877,325.97302 349.00969,325.97302 C 379.92067,325.97302 403.89246,309.41357 403.89246,274.0079 C 403.89246,243.88549 382.91715,223.85645 348.85202,223.85645 C 316.28507,223.85645 294.20584,242.4661 294.20584,275.97927 z "
         style="fill:red;fill-rule:nonzero;stroke:#ee2c30;stroke-width:1.96347713;stroke-linecap:butt;stroke-linejoin:miter;stroke-miterlimit:4;stroke-dasharray:none"
         id="path12007" />
      <path
         d="M 518.38919,301.84354 C 508.61125,301.84354 500.09495,294.27351 500.09495,282.91847 L 570.43315,282.91847 C 570.98514,248.06477 550.24642,223.30446 515.86584,223.30446 C 486.1377,223.30446 463.34875,243.64893 463.34875,275.11187 C 463.34875,307.67877 486.29543,325.34218 516.02357,325.34218 C 537.62967,325.34218 561.04947,317.45673 567.43668,293.48497 L 532.18871,293.48497 C 529.50764,299.08364 524.22441,301.84354 518.38919,301.84354 z M 533.60809,263.2837 L 500.09495,263.2837 C 500.01609,238.36567 533.92355,238.05025 533.60809,263.2837"
         style="fill:red;fill-rule:nonzero;stroke:none;stroke-width:0.249;stroke-linecap:butt;stroke-linejoin:miter;stroke-miterlimit:4;stroke-dasharray:none"
         id="path12009" />
      <path
         d="M 694.86555,202.96 L 694.86555,197.36133 L 700.70077,197.36133 C 703.46071,197.36133 703.93383,199.01727 703.93383,200.12124 C 703.93383,202.17146 702.75099,202.96 700.38537,202.96 L 694.86555,202.96 z M 690.29197,214.86703 L 694.86555,214.86703 L 694.86555,206.50845 L 699.67565,206.50845 C 703.14525,206.50845 703.38184,207.69127 703.38184,210.53003 C 703.38184,212.73796 703.53957,213.84192 703.85497,214.86703 L 708.98053,214.86703 L 708.98053,214.2362 C 708.03422,213.92078 708.03422,213.13223 708.03422,210.05691 C 708.03422,206.11418 707.00917,205.48334 705.19548,204.6948 C 707.40343,203.98511 708.58621,202.01375 708.58621,199.64811 C 708.58621,197.83446 707.5611,193.65517 701.56815,193.65517 L 690.29197,193.65517 L 690.29197,214.86703"
         style="fill:red;fill-rule:nonzero;stroke:none;stroke-width:0.249;stroke-linecap:butt;stroke-linejoin:miter;stroke-miterlimit:4;stroke-dasharray:none"
         id="path12011" />
      <path
         d="M 677.91182,204.53709 C 677.91182,192.70892 687.45323,183.16752 699.28139,183.16752 C 711.10956,183.16752 720.65097,192.70892 720.65097,204.53709 C 720.65097,216.36527 711.10956,225.90666 699.28139,225.90666 C 687.45323,225.90666 677.91182,216.36527 677.91182,204.53709 z M 699.28139,223.06789 C 709.53246,223.06789 717.81222,214.78817 717.81222,204.53709 C 717.81222,194.28601 709.53246,185.92743 699.28139,185.92743 C 689.03033,185.92743 680.75056,194.28601 680.75056,204.53709 C 680.75056,214.78817 689.03033,223.06789 699.28139,223.06789"
         style="fill:red;fill-rule:nonzero;stroke:none;stroke-width:0.249;stroke-linecap:butt;stroke-linejoin:miter;stroke-miterlimit:4;stroke-dasharray:none"
         id="path12013" />
      <path
         d="M 613.09344,226.06437 C 617.74581,233.39784 622.31939,241.99298 627.36609,248.93217 L 643.5313,226.06437 L 676.09819,226.06437 C 666.63564,240.96787 654.49202,254.7674 645.4238,269.67091 C 645.4238,269.67091 667.42416,305.15543 676.65018,320.2955 L 640.06164,320.2955 C 632.96478,308.78274 625.78899,294.90435 622.71365,290.48849 L 604.18288,320.2955 L 570.98514,320.2955 C 582.73444,302.71095 604.81374,269.82862 604.81374,269.82862 L 575.08559,226.06437 L 613.09344,226.06437"
         style="fill:red;fill-rule:nonzero;stroke:none;stroke-width:0.249;stroke-linecap:butt;stroke-linejoin:miter;stroke-miterlimit:4;stroke-dasharray:none"
         id="path12015" />
      <path
         d="M 210.46238,320.37435 L 210.46238,261.07577 C 210.46238,251.84979 217.95356,244.35861 227.17951,244.35861 C 236.40546,244.35861 243.89665,251.84979 243.89665,261.07577 L 243.89665,320.37435 L 243.89665,320.37435 L 276.70013,320.2955 L 276.70013,249.64187 C 276.227,243.01809 269.68207,233.16127 261.79662,228.82427 C 251.23017,223.77759 227.57377,217.94236 208.01789,239.46964 C 201.70948,232.767 193.82404,227.64146 185.22894,225.27582 C 170.7197,222.2005 155.5008,225.35468 144.85541,236.39431 C 143.43604,237.57713 142.2532,240.49474 142.33206,238.05025 L 142.33206,226.06437 L 108.6612,226.06437 L 108.6612,320.2955 L 142.33206,320.2955 L 142.33206,260.99691 C 142.33206,251.77094 149.90211,244.27976 159.12806,244.27976 C 168.35408,244.27976 175.84526,251.77094 175.84526,260.99691 L 175.84526,320.37435 L 210.46238,320.37435"
         style="fill:red;fill-rule:nonzero;stroke:none;stroke-width:0.249;stroke-linecap:butt;stroke-linejoin:miter;stroke-miterlimit:4;stroke-dasharray:none"
         id="path12017" />
    </g>
  </g>
</svg>
